<svg xmlns="http://www.w3.org/2000/svg" xmlns:xlink="http://www.w3.org/1999/xlink" width="730" height="298.81"><rect width="730" height="298.81" rx="5" ry="5" class="a"/><svg y="0%" x="0%"><circle cx="20" cy="20" r="6" fill="#ff5f58"/><circle cx="40" cy="20" r="6" fill="#ffbd2e"/><circle cx="60" cy="20" r="6" fill="#18c132"/></svg><svg height="238.81" viewBox="0 0 69 23.881" width="690" x="15" xmlns="http://www.w3.org/2000/svg" xmlns:xlink="http://www.w3.org/1999/xlink" y="50"><style>@keyframes s{0%{transform:translateX(0)}.4%{transform:translateX(-276px)}5.7%{transform:translateX(-345px)}28.8%{transform:translateX(-414px)}31%{transform:translateX(-483px)}35%{transform:translateX(-552px)}38.4%{transform:translateX(-621px)}40.5%{transform:translateX(-690px)}44.9%{transform:translateX(-759px)}46.1%{transform:translateX(-828px)}50.4%{transform:translateX(-897px)}54%{transform:translateX(-966px)}54.8%{transform:translateX(-1035px)}65.6%{transform:translateX(-1173px)}66.6%{transform:translateX(-1242px)}66.8%{transform:translateX(-1311px)}67%{transform:translateX(-1380px)}67.6%{transform:translateX(-1587px)}72.5%{transform:translateX(-1725px)}89.4%{transform:translateX(-1794px)}99.8%{transform:translateX(-1863px)}to{transform:translateX(-2001px)}}.a{fill:#282d35}.i{fill:#b9bfca;font-weight:700}.i,.j,.k,.l{white-space:pre}.j{fill:#66c2cd;font-weight:700}.k,.l{fill:#bcbcbc}.l{fill:#8a8a8a}.m{fill:#eee;font-weight:700}.m,.n,.o,.p{white-space:pre}.n{fill:#00ffd7;font-weight:700}.o,.p{fill:#b9c0cb}.p{fill:#a8cc8c;font-weight:700}</style><g font-family="Monaco,Consolas,Menlo,'Bitstream Vera Sans Mono','Powerline Symbols',monospace" font-size="1.67"><defs><symbol id="1"><text y="1.67" style="white-space:pre" fill="#71bef2" font-weight="700">github/dwmkerr/dwmkerr.com</text><text x="27.054" y="1.67" style="white-space:pre" fill="#a8cc8c" text-decoration="underline">main</text><text x="32.064" y="1.67" style="white-space:pre" fill="#e88388">!</text></symbol><symbol id="2"><text y="1.67" class="i">%</text></symbol><symbol id="3">0<text y="1.67" class="j">dwmkerr_com</text>0<text x="12.024" y="1.67" class="k">1</text>0<text x="13.026" y="1.67" class="l">:</text>0<text x="14.028" y="1.67" class="m">zsh</text>0<text x="17.034" y="1.67" class="n">*</text>0<text x="19.038" y="1.67" class="o"></text>0<text x="49.098" y="1.67" class="k">2022-09-25</text>0<text x="61.122" y="1.67" class="i">23:08:46</text></symbol><symbol id="4"><text y="1.67" class="i">%</text><text x="2.004" y="1.67" class="o">make</text></symbol><symbol id="5">0<text y="1.67" class="j">dwmkerr_com</text>0<text x="12.024" y="1.67" class="k">1</text>0<text x="13.026" y="1.67" class="l">:</text>0<text x="14.028" y="1.67" class="m">zsh</text>0<text x="17.034" y="1.67" class="n">*</text>0<text x="19.038" y="1.67" class="o"></text>0<text x="49.098" y="1.67" class="k">2022-09-25</text>0<text x="61.122" y="1.67" class="i">23:08:48</text></symbol><symbol id="6"><text y="1.67" class="i">%</text><text x="2.004" y="1.67" class="o">make</text><text x="7.014" y="1.67" class="o">help</text></symbol><symbol id="7"><text y="1.67" class="p">help</text><text x="4.008" y="1.67" class="o">:</text><text x="6.012" y="1.67" class="o">Show</text><text x="11.022" y="1.67" class="o">help</text><text x="16.032" y="1.67" class="o">for</text><text x="20.04" y="1.67" class="o">each</text><text x="25.05" y="1.67" class="o">of</text><text x="28.056" y="1.67" class="o">the</text><text x="32.064" y="1.67" class="o">Makefile</text><text x="41.082" y="1.67" class="o">recipes.</text></symbol><symbol id="8"><text y="1.67" class="p">newpost</text><text x="7.014" y="1.67" class="o">:</text><text x="9.018" y="1.67" class="o">Create</text><text x="16.032" y="1.67" class="o">a</text><text x="18.036" y="1.67" class="o">new</text><text x="22.044" y="1.67" class="o">post.</text></symbol><symbol id="9"><text y="1.67" class="p">serve</text><text x="5.01" y="1.67" class="o">:</text><text x="7.014" y="1.67" class="o">Serve</text><text x="13.026" y="1.67" class="o">the</text><text x="17.034" y="1.67" class="o">site</text><text x="22.044" y="1.67" class="o">locally</text><text x="30.06" y="1.67" class="o">for</text><text x="34.068" y="1.67" class="o">testing.</text></symbol><symbol id="10"><text y="1.67" class="p">setup</text><text x="5.01" y="1.67" class="o">:</text><text x="7.014" y="1.67" class="o">Setup</text><text x="13.026" y="1.67" class="o">tools</text><text x="19.038" y="1.67" class="o">required</text><text x="28.056" y="1.67" class="o">for</text><text x="32.064" y="1.67" class="o">local</text><text x="38.076" y="1.67" class="o">development.</text></symbol><symbol id="11">0<text y="1.67" class="j">dwmkerr_com</text>0<text x="12.024" y="1.67" class="k">1</text>0<text x="13.026" y="1.67" class="l">:</text>0<text x="14.028" y="1.67" class="m">zsh</text>0<text x="17.034" y="1.67" class="n">*</text>0<text x="19.038" y="1.67" class="o"></text>0<text x="49.098" y="1.67" class="k">2022-09-25</text>0<text x="61.122" y="1.67" class="i">23:08:49</text></symbol><symbol id="12">0<text y="1.67" class="j">dwmkerr_com</text>0<text x="12.024" y="1.67" class="k">1</text>0<text x="13.026" y="1.67" class="l">:</text>0<text x="14.028" y="1.67" class="m">zsh</text>0<text x="17.034" y="1.67" class="n">*</text>0<text x="19.038" y="1.67" class="o"></text>0<text x="49.098" y="1.67" class="k">2022-09-25</text>0<text x="61.122" y="1.67" class="i">23:08:50</text></symbol><symbol id="a"><path fill="transparent" d="M0 0h69v11H0z"/></symbol><symbol id="b"><path fill="#6f7683" d="M0 0h1.102v2.171H0z"/></symbol></defs><path class="a" d="M0 0h69v23.881H0z"/><g style="animation-duration:4.49426s;animation-iteration-count:infinite;animation-name:s;animation-timing-function:steps(1,end)"><svg width="2070"><svg><use xlink:href="#a"/><use xlink:href="#b" x="-.004"/></svg><svg x="69"><use xlink:href="#a"/><use xlink:href="#b" x="1.996" y="4.317"/></svg><svg x="138"><use xlink:href="#a"/><use xlink:href="#b" x="-.004"/><use xlink:href="#1" y="2.171"/><use xlink:href="#2" y="4.342"/><use xlink:href="#3" y="21.71"/></svg><svg x="207"><use xlink:href="#a"/><use xlink:href="#b" x="1.996" y="4.317"/><use xlink:href="#1" y="2.171"/><use xlink:href="#2" y="4.342"/><use xlink:href="#3" y="21.71"/></svg><svg x="276"><use xlink:href="#a"/><use xlink:href="#b" x="1.996" y="4.317"/><use xlink:href="#1" y="2.171"/><use xlink:href="#2" y="4.342"/><use xlink:href="#3" y="21.71"/></svg><svg x="345"><use xlink:href="#a"/><use xlink:href="#b" x="1.996" y="4.317"/><use xlink:href="#1" y="2.171"/><use xlink:href="#2" y="4.342"/><use xlink:href="#3" y="21.71"/></svg><svg x="414"><use xlink:href="#a"/><use xlink:href="#b" x="2.996" y="4.317"/><use xlink:href="#1" y="2.171"/><text y="6.012" class="i">%</text><text x="2.004" y="6.012" class="o">m</text><use xlink:href="#3" y="21.71"/></svg><svg x="483"><use xlink:href="#a"/><use xlink:href="#b" x="3.996" y="4.317"/><use xlink:href="#1" y="2.171"/><text y="6.012" class="i">%</text><text x="2.004" y="6.012" class="o">ma</text><use xlink:href="#3" y="21.71"/></svg><svg x="552"><use xlink:href="#a"/><use xlink:href="#b" x="4.996" y="4.317"/><use xlink:href="#1" y="2.171"/><text y="6.012" class="i">%</text><text x="2.004" y="6.012" class="o">mak</text><use xlink:href="#3" y="21.71"/></svg><svg x="621"><use xlink:href="#a"/><use xlink:href="#b" x="5.996" y="4.317"/><use xlink:href="#1" y="2.171"/><use xlink:href="#4" y="4.342"/><use xlink:href="#3" y="21.71"/></svg><svg x="690"><use xlink:href="#a"/><use xlink:href="#b" x="6.996" y="4.317"/><use xlink:href="#1" y="2.171"/><use xlink:href="#4" y="4.342"/><use xlink:href="#3" y="21.71"/></svg><svg x="759"><use xlink:href="#a"/><use xlink:href="#b" x="6.996" y="4.317"/><use xlink:href="#1" y="2.171"/><use xlink:href="#4" y="4.342"/><use xlink:href="#5" y="21.71"/></svg><svg x="828"><use xlink:href="#a"/><use xlink:href="#b" x="7.996" y="4.317"/><use xlink:href="#1" y="2.171"/><text y="6.012" class="i">%</text><text x="2.004" y="6.012" class="o">make</text><text x="7.014" y="6.012" class="o">h</text><use xlink:href="#5" y="21.71"/></svg><svg x="897"><use xlink:href="#a"/><use xlink:href="#b" x="8.996" y="4.317"/><use xlink:href="#1" y="2.171"/><text y="6.012" class="i">%</text><text x="2.004" y="6.012" class="o">make</text><text x="7.014" y="6.012" class="o">he</text><use xlink:href="#5" y="21.71"/></svg><svg x="966"><use xlink:href="#a"/><use xlink:href="#b" x="9.996" y="4.317"/><use xlink:href="#1" y="2.171"/><text y="6.012" class="i">%</text><text x="2.004" y="6.012" class="o">make</text><text x="7.014" y="6.012" class="o">hel</text><use xlink:href="#5" y="21.71"/></svg><svg x="1035"><use xlink:href="#a"/><use xlink:href="#b" x="10.996" y="4.317"/><use xlink:href="#1" y="2.171"/><use xlink:href="#6" y="4.342"/><use xlink:href="#5" y="21.71"/></svg><svg x="1104"><use xlink:href="#a"/><use xlink:href="#b" x="-.004" y="6.488"/><use xlink:href="#1" y="2.171"/><use xlink:href="#6" y="4.342"/><use xlink:href="#5" y="21.71"/></svg><svg x="1173"><use xlink:href="#a"/><use xlink:href="#b" x="-.004" y="6.488"/><use xlink:href="#1" y="2.171"/><use xlink:href="#6" y="4.342"/><use xlink:href="#5" y="21.71"/></svg><svg x="1242"><use xlink:href="#a"/><use xlink:href="#b" x="-.004" y="8.659"/><use xlink:href="#1" y="2.171"/><use xlink:href="#6" y="4.342"/><use xlink:href="#7" y="6.513"/><use xlink:href="#5" y="21.71"/></svg><svg x="1311"><use xlink:href="#a"/><use xlink:href="#b" x="-.004" y="10.83"/><use xlink:href="#1" y="2.171"/><use xlink:href="#6" y="4.342"/><use xlink:href="#7" y="6.513"/><use xlink:href="#8" y="8.684"/><use xlink:href="#5" y="21.71"/></svg><svg x="1380"><use xlink:href="#a"/><use xlink:href="#b" x="-.004" y="13.001"/><use xlink:href="#1" y="2.171"/><use xlink:href="#6" y="4.342"/><use xlink:href="#7" y="6.513"/><use xlink:href="#8" y="8.684"/><use xlink:href="#9" y="10.855"/><use xlink:href="#5" y="21.71"/></svg><svg x="1449"><use xlink:href="#a"/><use xlink:href="#b" x="-.004" y="15.172"/><use xlink:href="#1" y="2.171"/><use xlink:href="#6" y="4.342"/><use xlink:href="#7" y="6.513"/><use xlink:href="#8" y="8.684"/><use xlink:href="#9" y="10.855"/><use xlink:href="#10" y="13.026"/><use xlink:href="#5" y="21.71"/></svg><svg x="1518"><use xlink:href="#a"/><use xlink:href="#b" x="-.004" y="15.172"/><use xlink:href="#1" y="2.171"/><use xlink:href="#6" y="4.342"/><use xlink:href="#7" y="6.513"/><use xlink:href="#8" y="8.684"/><use xlink:href="#9" y="10.855"/><use xlink:href="#10" y="13.026"/><use xlink:href="#5" y="21.71"/></svg><svg x="1587"><use xlink:href="#a"/><use xlink:href="#b" x="-.004" y="15.172"/><use xlink:href="#1" y="2.171"/><use xlink:href="#6" y="4.342"/><use xlink:href="#7" y="6.513"/><use xlink:href="#8" y="8.684"/><use xlink:href="#9" y="10.855"/><use xlink:href="#10" y="13.026"/><use xlink:href="#11" y="21.71"/></svg><svg x="1656"><use xlink:href="#a"/><use xlink:href="#b" x="1.996" y="19.514"/><use xlink:href="#1" y="2.171"/><use xlink:href="#6" y="4.342"/><use xlink:href="#7" y="6.513"/><use xlink:href="#8" y="8.684"/><use xlink:href="#9" y="10.855"/><use xlink:href="#10" y="13.026"/><use xlink:href="#1" y="17.368"/><use xlink:href="#2" y="19.539"/><use xlink:href="#11" y="21.71"/></svg><svg x="1725"><use xlink:href="#a"/><use xlink:href="#b" x="1.996" y="19.514"/><use xlink:href="#1" y="2.171"/><use xlink:href="#6" y="4.342"/><use xlink:href="#7" y="6.513"/><use xlink:href="#8" y="8.684"/><use xlink:href="#9" y="10.855"/><use xlink:href="#10" y="13.026"/><use xlink:href="#1" y="17.368"/><use xlink:href="#2" y="19.539"/><use xlink:href="#11" y="21.71"/></svg><svg x="1794"><use xlink:href="#a"/><use xlink:href="#b" x="1.996" y="19.514"/><use xlink:href="#1" y="2.171"/><use xlink:href="#6" y="4.342"/><use xlink:href="#7" y="6.513"/><use xlink:href="#8" y="8.684"/><use xlink:href="#9" y="10.855"/><use xlink:href="#10" y="13.026"/><use xlink:href="#1" y="17.368"/><use xlink:href="#2" y="19.539"/><use xlink:href="#12" y="21.71"/></svg><svg x="1863"><use xlink:href="#a"/><use xlink:href="#b" x="-.004" y="19.514"/><use xlink:href="#1"/><use xlink:href="#6" y="2.171"/><use xlink:href="#7" y="4.342"/><use xlink:href="#8" y="6.513"/><use xlink:href="#9" y="8.684"/><use xlink:href="#10" y="10.855"/><use xlink:href="#1" y="15.197"/><use xlink:href="#2" y="17.368"/><use xlink:href="#12" y="21.71"/></svg><svg x="1932"><use xlink:href="#a"/><use xlink:href="#b" x="-.004"/></svg><svg x="2001"><use xlink:href="#a"/><use xlink:href="#b" x="-.004" y="2.146"/><text y="1.67" class="o">[exited]</text></svg></svg></g></g></svg></svg>