<svg xmlns="http://www.w3.org/2000/svg" xmlns:xlink="http://www.w3.org/1999/xlink" width="840" height="581.04"><rect width="840" height="581.04" rx="5" ry="5" class="a"/><svg y="0%" x="0%"><circle cx="20" cy="20" r="6" fill="#ff5f58"/><circle cx="40" cy="20" r="6" fill="#ffbd2e"/><circle cx="60" cy="20" r="6" fill="#18c132"/></svg><svg height="521.04" viewBox="0 0 80 52.104" width="800" x="15" xmlns="http://www.w3.org/2000/svg" xmlns:xlink="http://www.w3.org/1999/xlink" y="50"><style>@keyframes s{0%{transform:translateX(0)}.4%{transform:translateX(-400px)}4.4%{transform:translateX(-480px)}14.9%{transform:translateX(-560px)}17.4%{transform:translateX(-640px)}19.8%{transform:translateX(-720px)}22.1%{transform:translateX(-800px)}24.6%{transform:translateX(-880px)}30.6%{transform:translateX(-960px)}31.4%{transform:translateX(-1040px)}34.5%{transform:translateX(-1120px)}37.3%{transform:translateX(-1200px)}39.9%{transform:translateX(-1280px)}46%{transform:translateX(-1440px)}46.6%{transform:translateX(-1520px)}46.8%{transform:translateX(-1600px)}47.1%{transform:translateX(-1680px)}47.3%{transform:translateX(-1920px)}50.9%{transform:translateX(-2080px)}60.8%{transform:translateX(-2160px)}90.6%{transform:translateX(-2240px)}91%{transform:translateX(-2320px)}94.1%{transform:translateX(-2400px)}95.8%{transform:translateX(-2480px)}98%{transform:translateX(-2560px)}99.7%{transform:translateX(-2640px)}99.9%{transform:translateX(-2720px)}to{transform:translateX(-2880px)}}.a{fill:#282d35}.i{fill:#b9bfca;font-weight:700}.i,.j,.k,.l{white-space:pre}.j{fill:#66c2cd;font-weight:700}.k,.l{fill:#bcbcbc}.l{fill:#8a8a8a}.m{fill:#eee;font-weight:700}.m,.n,.o,.p{white-space:pre}.n{fill:#00ffd7;font-weight:700}.o,.p{fill:#b9c0cb}.p{fill:#a8cc8c;font-weight:700}</style><g font-family="Monaco,Consolas,Menlo,'Bitstream Vera Sans Mono','Powerline Symbols',monospace" font-size="1.67"><defs><symbol id="1"><text y="1.67" style="white-space:pre" fill="#71bef2" font-weight="700">dwmkerr/dwmkerr/dwmkerr.com</text><text x="28.056" y="1.67" style="white-space:pre" fill="#a8cc8c" text-decoration="underline">main</text><text x="33.066" y="1.67" style="white-space:pre" fill="#e88388">!</text></symbol><symbol id="2"><text y="1.67" class="i">%</text></symbol><symbol id="3">0<text y="1.67" class="j">dwmkerr_com</text>0<text x="12.024" y="1.67" class="k">1</text>0<text x="13.026" y="1.67" class="l">:</text>0<text x="14.028" y="1.67" class="m">zsh</text>0<text x="17.034" y="1.67" class="n">*</text>0<text x="19.038" y="1.67" class="o"></text>0<text x="60.12" y="1.67" class="k">2022-09-25</text>0<text x="72.144" y="1.67" class="i">22:31:53</text></symbol><symbol id="4"><text y="1.67" class="i">%</text><text x="2.004" y="1.67" class="o">make</text></symbol><symbol id="5">0<text y="1.67" class="j">dwmkerr_com</text>0<text x="12.024" y="1.67" class="k">1</text>0<text x="13.026" y="1.67" class="l">:</text>0<text x="14.028" y="1.67" class="m">zsh</text>0<text x="17.034" y="1.67" class="n">*</text>0<text x="19.038" y="1.67" class="o"></text>0<text x="60.12" y="1.67" class="k">2022-09-25</text>0<text x="72.144" y="1.67" class="i">22:31:55</text></symbol><symbol id="6"><text y="1.67" class="i">%</text><text x="2.004" y="1.67" class="o">make</text><text x="7.014" y="1.67" class="o">help</text></symbol><symbol id="7">0<text y="1.67" class="j">dwmkerr_com</text>0<text x="12.024" y="1.67" class="k">1</text>0<text x="13.026" y="1.67" class="l">:</text>0<text x="14.028" y="1.67" class="m">zsh</text>0<text x="17.034" y="1.67" class="n">*</text>0<text x="19.038" y="1.67" class="o"></text>0<text x="60.12" y="1.67" class="k">2022-09-25</text>0<text x="72.144" y="1.67" class="i">22:31:56</text></symbol><symbol id="8"><text y="1.67" class="p">help</text><text x="4.008" y="1.67" class="o">:</text><text x="6.012" y="1.67" class="o">Show</text><text x="11.022" y="1.67" class="o">help</text><text x="16.032" y="1.67" class="o">for</text><text x="20.04" y="1.67" class="o">each</text><text x="25.05" y="1.67" class="o">of</text><text x="28.056" y="1.67" class="o">the</text><text x="32.064" y="1.67" class="o">Makefile</text><text x="41.082" y="1.67" class="o">recipes.</text></symbol><symbol id="9"><text y="1.67" class="p">newpost</text><text x="7.014" y="1.67" class="o">:</text><text x="9.018" y="1.67" class="o">Create</text><text x="16.032" y="1.67" class="o">a</text><text x="18.036" y="1.67" class="o">new</text><text x="22.044" y="1.67" class="o">post.</text></symbol><symbol id="10"><text y="1.67" class="p">serve</text><text x="5.01" y="1.67" class="o">:</text><text x="7.014" y="1.67" class="o">Serve</text><text x="13.026" y="1.67" class="o">the</text><text x="17.034" y="1.67" class="o">site</text><text x="22.044" y="1.67" class="o">locally</text><text x="30.06" y="1.67" class="o">for</text><text x="34.068" y="1.67" class="o">testing.</text></symbol><symbol id="11"><text y="1.67" class="p">setup</text><text x="5.01" y="1.67" class="o">:</text><text x="7.014" y="1.67" class="o">Setup</text><text x="13.026" y="1.67" class="o">tools</text><text x="19.038" y="1.67" class="o">required</text><text x="28.056" y="1.67" class="o">for</text><text x="32.064" y="1.67" class="o">local</text><text x="38.076" y="1.67" class="o">development.</text></symbol><symbol id="12">0<text y="1.67" class="j">dwmkerr_com</text>0<text x="12.024" y="1.67" class="k">1</text>0<text x="13.026" y="1.67" class="l">:</text>0<text x="14.028" y="1.67" class="m">zsh</text>0<text x="17.034" y="1.67" class="n">*</text>0<text x="19.038" y="1.67" class="o"></text>0<text x="60.12" y="1.67" class="k">2022-09-25</text>0<text x="72.144" y="1.67" class="i">22:31:57</text></symbol><symbol id="13"><text y="1.67" class="i">%</text><text x="2.004" y="1.67" class="o">e</text></symbol><symbol id="14">0<text y="1.67" class="j">dwmkerr_com</text>0<text x="12.024" y="1.67" class="k">1</text>0<text x="13.026" y="1.67" class="l">:</text>0<text x="14.028" y="1.67" class="m">zsh</text>0<text x="17.034" y="1.67" class="n">*</text>0<text x="19.038" y="1.67" class="o"></text>0<text x="60.12" y="1.67" class="k">2022-09-25</text>0<text x="72.144" y="1.67" class="i">22:31:59</text></symbol><symbol id="15"><text y="1.67" class="i">%</text><text x="2.004" y="1.67" class="o">exit</text></symbol><symbol id="a"><path fill="transparent" d="M0 0h80v24H0z"/></symbol><symbol id="b"><path fill="#6f7683" d="M0 0h1.102v2.171H0z"/></symbol></defs><path class="a" d="M0 0h80v52.104H0z"/><g style="animation-duration:6.623266s;animation-iteration-count:infinite;animation-name:s;animation-timing-function:steps(1,end)"><svg width="2960"><svg><use xlink:href="#a"/><use xlink:href="#b" x="-.004"/></svg><svg x="80"><use xlink:href="#a"/><use xlink:href="#b" x="1.996" y="4.317"/></svg><svg x="160"><use xlink:href="#a"/><use xlink:href="#b" x="1.996" y="4.317"/><use xlink:href="#1" y="2.171"/><use xlink:href="#2" y="4.342"/><use xlink:href="#3" y="49.933"/></svg><svg x="240"><use xlink:href="#a"/><use xlink:href="#b" x="1.996" y="4.317"/><use xlink:href="#1" y="2.171"/><use xlink:href="#2" y="4.342"/><use xlink:href="#3" y="49.933"/></svg><svg x="320"><use xlink:href="#a"/><use xlink:href="#b" x="1.996" y="4.317"/><use xlink:href="#1" y="2.171"/><use xlink:href="#2" y="4.342"/><use xlink:href="#3" y="49.933"/></svg><svg x="400"><use xlink:href="#a"/><use xlink:href="#b" x="1.996" y="4.317"/><use xlink:href="#1" y="2.171"/><use xlink:href="#2" y="4.342"/><use xlink:href="#3" y="49.933"/></svg><svg x="480"><use xlink:href="#a"/><use xlink:href="#b" x="1.996" y="4.317"/><use xlink:href="#1" y="2.171"/><use xlink:href="#2" y="4.342"/><use xlink:href="#3" y="49.933"/></svg><svg x="560"><use xlink:href="#a"/><use xlink:href="#b" x="2.996" y="4.317"/><use xlink:href="#1" y="2.171"/><text y="6.012" class="i">%</text><text x="2.004" y="6.012" class="o">m</text><use xlink:href="#3" y="49.933"/></svg><svg x="640"><use xlink:href="#a"/><use xlink:href="#b" x="3.996" y="4.317"/><use xlink:href="#1" y="2.171"/><text y="6.012" class="i">%</text><text x="2.004" y="6.012" class="o">ma</text><use xlink:href="#3" y="49.933"/></svg><svg x="720"><use xlink:href="#a"/><use xlink:href="#b" x="4.996" y="4.317"/><use xlink:href="#1" y="2.171"/><text y="6.012" class="i">%</text><text x="2.004" y="6.012" class="o">mak</text><use xlink:href="#3" y="49.933"/></svg><svg x="800"><use xlink:href="#a"/><use xlink:href="#b" x="5.996" y="4.317"/><use xlink:href="#1" y="2.171"/><use xlink:href="#4" y="4.342"/><use xlink:href="#3" y="49.933"/></svg><svg x="880"><use xlink:href="#a"/><use xlink:href="#b" x="6.996" y="4.317"/><use xlink:href="#1" y="2.171"/><use xlink:href="#4" y="4.342"/><use xlink:href="#3" y="49.933"/></svg><svg x="960"><use xlink:href="#a"/><use xlink:href="#b" x="6.996" y="4.317"/><use xlink:href="#1" y="2.171"/><use xlink:href="#4" y="4.342"/><use xlink:href="#5" y="49.933"/></svg><svg x="1040"><use xlink:href="#a"/><use xlink:href="#b" x="7.996" y="4.317"/><use xlink:href="#1" y="2.171"/><text y="6.012" class="i">%</text><text x="2.004" y="6.012" class="o">make</text><text x="7.014" y="6.012" class="o">h</text><use xlink:href="#5" y="49.933"/></svg><svg x="1120"><use xlink:href="#a"/><use xlink:href="#b" x="8.996" y="4.317"/><use xlink:href="#1" y="2.171"/><text y="6.012" class="i">%</text><text x="2.004" y="6.012" class="o">make</text><text x="7.014" y="6.012" class="o">he</text><use xlink:href="#5" y="49.933"/></svg><svg x="1200"><use xlink:href="#a"/><use xlink:href="#b" x="9.996" y="4.317"/><use xlink:href="#1" y="2.171"/><text y="6.012" class="i">%</text><text x="2.004" y="6.012" class="o">make</text><text x="7.014" y="6.012" class="o">hel</text><use xlink:href="#5" y="49.933"/></svg><svg x="1280"><use xlink:href="#a"/><use xlink:href="#b" x="10.996" y="4.317"/><use xlink:href="#1" y="2.171"/><use xlink:href="#6" y="4.342"/><use xlink:href="#5" y="49.933"/></svg><svg x="1360"><use xlink:href="#a"/><use xlink:href="#b" x="-.004" y="6.488"/><use xlink:href="#1" y="2.171"/><use xlink:href="#6" y="4.342"/><use xlink:href="#5" y="49.933"/></svg><svg x="1440"><use xlink:href="#a"/><use xlink:href="#b" x="-.004" y="6.488"/><use xlink:href="#1" y="2.171"/><use xlink:href="#6" y="4.342"/><use xlink:href="#7" y="49.933"/></svg><svg x="1520"><use xlink:href="#a"/><use xlink:href="#b" x="-.004" y="8.659"/><use xlink:href="#1" y="2.171"/><use xlink:href="#6" y="4.342"/><use xlink:href="#8" y="6.513"/><use xlink:href="#7" y="49.933"/></svg><svg x="1600"><use xlink:href="#a"/><use xlink:href="#b" x="-.004" y="10.83"/><use xlink:href="#1" y="2.171"/><use xlink:href="#6" y="4.342"/><use xlink:href="#8" y="6.513"/><use xlink:href="#9" y="8.684"/><use xlink:href="#7" y="49.933"/></svg><svg x="1680"><use xlink:href="#a"/><use xlink:href="#b" x="-.004" y="13.001"/><use xlink:href="#1" y="2.171"/><use xlink:href="#6" y="4.342"/><use xlink:href="#8" y="6.513"/><use xlink:href="#9" y="8.684"/><use xlink:href="#10" y="10.855"/><use xlink:href="#7" y="49.933"/></svg><svg x="1760"><use xlink:href="#a"/><use xlink:href="#b" x="-.004" y="15.172"/><use xlink:href="#1" y="2.171"/><use xlink:href="#6" y="4.342"/><use xlink:href="#8" y="6.513"/><use xlink:href="#9" y="8.684"/><use xlink:href="#10" y="10.855"/><use xlink:href="#11" y="13.026"/><use xlink:href="#7" y="49.933"/></svg><svg x="1840"><use xlink:href="#a"/><use xlink:href="#b" x="-.004" y="15.172"/><use xlink:href="#1" y="2.171"/><use xlink:href="#6" y="4.342"/><use xlink:href="#8" y="6.513"/><use xlink:href="#9" y="8.684"/><use xlink:href="#10" y="10.855"/><use xlink:href="#11" y="13.026"/><use xlink:href="#7" y="49.933"/></svg><svg x="1920"><use xlink:href="#a"/><use xlink:href="#b" x="-.004" y="15.172"/><use xlink:href="#1" y="2.171"/><use xlink:href="#6" y="4.342"/><use xlink:href="#8" y="6.513"/><use xlink:href="#9" y="8.684"/><use xlink:href="#10" y="10.855"/><use xlink:href="#11" y="13.026"/><use xlink:href="#7" y="49.933"/></svg><svg x="2000"><use xlink:href="#a"/><use xlink:href="#b" x="1.996" y="19.514"/><use xlink:href="#1" y="2.171"/><use xlink:href="#6" y="4.342"/><use xlink:href="#8" y="6.513"/><use xlink:href="#9" y="8.684"/><use xlink:href="#10" y="10.855"/><use xlink:href="#11" y="13.026"/><use xlink:href="#1" y="17.368"/><use xlink:href="#2" y="19.539"/><use xlink:href="#7" y="49.933"/></svg><svg x="2080"><use xlink:href="#a"/><use xlink:href="#b" x="1.996" y="19.514"/><use xlink:href="#1" y="2.171"/><use xlink:href="#6" y="4.342"/><use xlink:href="#8" y="6.513"/><use xlink:href="#9" y="8.684"/><use xlink:href="#10" y="10.855"/><use xlink:href="#11" y="13.026"/><use xlink:href="#1" y="17.368"/><use xlink:href="#2" y="19.539"/><use xlink:href="#7" y="49.933"/></svg><svg x="2160"><use xlink:href="#a"/><use xlink:href="#b" x="1.996" y="19.514"/><use xlink:href="#1" y="2.171"/><use xlink:href="#6" y="4.342"/><use xlink:href="#8" y="6.513"/><use xlink:href="#9" y="8.684"/><use xlink:href="#10" y="10.855"/><use xlink:href="#11" y="13.026"/><use xlink:href="#1" y="17.368"/><use xlink:href="#2" y="19.539"/><use xlink:href="#12" y="49.933"/></svg><svg x="2240"><use xlink:href="#a"/><use xlink:href="#b" x="2.996" y="19.514"/><use xlink:href="#1" y="2.171"/><use xlink:href="#6" y="4.342"/><use xlink:href="#8" y="6.513"/><use xlink:href="#9" y="8.684"/><use xlink:href="#10" y="10.855"/><use xlink:href="#11" y="13.026"/><use xlink:href="#1" y="17.368"/><use xlink:href="#13" y="19.539"/><use xlink:href="#12" y="49.933"/></svg><svg x="2320"><use xlink:href="#a"/><use xlink:href="#b" x="2.996" y="19.514"/><use xlink:href="#1" y="2.171"/><use xlink:href="#6" y="4.342"/><use xlink:href="#8" y="6.513"/><use xlink:href="#9" y="8.684"/><use xlink:href="#10" y="10.855"/><use xlink:href="#11" y="13.026"/><use xlink:href="#1" y="17.368"/><use xlink:href="#13" y="19.539"/><use xlink:href="#14" y="49.933"/></svg><svg x="2400"><use xlink:href="#a"/><use xlink:href="#b" x="3.996" y="19.514"/><use xlink:href="#1" y="2.171"/><use xlink:href="#6" y="4.342"/><use xlink:href="#8" y="6.513"/><use xlink:href="#9" y="8.684"/><use xlink:href="#10" y="10.855"/><use xlink:href="#11" y="13.026"/><use xlink:href="#1" y="17.368"/><text y="21.209" class="i">%</text><text x="2.004" y="21.209" class="o">ex</text><use xlink:href="#14" y="49.933"/></svg><svg x="2480"><use xlink:href="#a"/><use xlink:href="#b" x="4.996" y="19.514"/><use xlink:href="#1" y="2.171"/><use xlink:href="#6" y="4.342"/><use xlink:href="#8" y="6.513"/><use xlink:href="#9" y="8.684"/><use xlink:href="#10" y="10.855"/><use xlink:href="#11" y="13.026"/><use xlink:href="#1" y="17.368"/><text y="21.209" class="i">%</text><text x="2.004" y="21.209" class="o">exi</text><use xlink:href="#14" y="49.933"/></svg><svg x="2560"><use xlink:href="#a"/><use xlink:href="#b" x="5.996" y="19.514"/><use xlink:href="#1" y="2.171"/><use xlink:href="#6" y="4.342"/><use xlink:href="#8" y="6.513"/><use xlink:href="#9" y="8.684"/><use xlink:href="#10" y="10.855"/><use xlink:href="#11" y="13.026"/><use xlink:href="#1" y="17.368"/><use xlink:href="#15" y="19.539"/><use xlink:href="#14" y="49.933"/></svg><svg x="2640"><use xlink:href="#a"/><use xlink:href="#b" x="-.004" y="21.685"/><use xlink:href="#1" y="2.171"/><use xlink:href="#6" y="4.342"/><use xlink:href="#8" y="6.513"/><use xlink:href="#9" y="8.684"/><use xlink:href="#10" y="10.855"/><use xlink:href="#11" y="13.026"/><use xlink:href="#1" y="17.368"/><use xlink:href="#15" y="19.539"/><use xlink:href="#14" y="49.933"/></svg><svg x="2720"><use xlink:href="#a"/><use xlink:href="#b" x="-.004" y="21.685"/><use xlink:href="#1" y="2.171"/><use xlink:href="#6" y="4.342"/><use xlink:href="#8" y="6.513"/><use xlink:href="#9" y="8.684"/><use xlink:href="#10" y="10.855"/><use xlink:href="#11" y="13.026"/><use xlink:href="#1" y="17.368"/><use xlink:href="#15" y="19.539"/>0<text y="51.603" class="j">dwmkerr_com</text>0<text x="12.024" y="51.603" class="k">1</text>0<text x="13.026" y="51.603" class="l">:</text>0<text x="14.028" y="51.603" class="m">zsh</text>0<text x="17.034" y="51.603" class="n">*</text>0<text x="19.038" y="51.603" class="o"></text>0<text x="60.12" y="51.603" class="k">2022-09-25</text>0<text x="72.144" y="51.603" class="i">22:32:00</text></svg><svg x="2800"><use xlink:href="#a"/><use xlink:href="#b" x="-.004"/></svg><svg x="2880"><use xlink:href="#a"/><use xlink:href="#b" x="-.004" y="2.146"/><text y="1.67" class="o">[exited]</text></svg></svg></g></g></svg></svg>